<?xml version="1.0" encoding="UTF-8" standalone="no"?>
<!-- Created with Inkscape (http://www.inkscape.org/) -->

<svg
   width="512"
   height="512"
   viewBox="0 0 135.46666 135.46667"
   version="1.1"
   id="svg1"
   sodipodi:docname="favicon.svg"
   inkscape:version="1.3.2 (091e20e, 2023-11-25, custom)"
   xmlns:inkscape="http://www.inkscape.org/namespaces/inkscape"
   xmlns:sodipodi="http://sodipodi.sourceforge.net/DTD/sodipodi-0.dtd"
   xmlns:xlink="http://www.w3.org/1999/xlink"
   xmlns="http://www.w3.org/2000/svg"
   xmlns:svg="http://www.w3.org/2000/svg">
  <sodipodi:namedview
     id="namedview1"
     pagecolor="#ffffff"
     bordercolor="#000000"
     borderopacity="0.25"
     inkscape:showpageshadow="2"
     inkscape:pageopacity="0.0"
     inkscape:pagecheckerboard="0"
     inkscape:deskcolor="#d1d1d1"
     inkscape:document-units="mm"
     inkscape:zoom="0.70710678"
     inkscape:cx="340.82547"
     inkscape:cy="252.43712"
     inkscape:window-width="1920"
     inkscape:window-height="991"
     inkscape:window-x="-9"
     inkscape:window-y="-9"
     inkscape:window-maximized="1"
     inkscape:current-layer="layer1" />
  <defs
     id="defs1">
    <linearGradient
       id="linearGradient34">
      <stop
         style="stop-color:#344d7c;stop-opacity:1;"
         offset="0"
         id="stop60" />
      <stop
         style="stop-color:#3bc1e7;stop-opacity:1;"
         offset="1"
         id="stop61" />
    </linearGradient>
    <linearGradient
       id="linearGradient34-1">
      <stop
         style="stop-color:#fbc3c3;stop-opacity:1;"
         offset="0"
         id="stop34" />
      <stop
         style="stop-color:#ec5ee4;stop-opacity:1;"
         offset="1"
         id="stop35" />
    </linearGradient>
    <linearGradient
       id="linearGradient12"
       inkscape:collect="always">
      <stop
         style="stop-color:#000000;stop-opacity:1;"
         offset="0"
         id="stop12" />
      <stop
         style="stop-color:#2e1a47;stop-opacity:1;"
         offset="1"
         id="stop13" />
    </linearGradient>
    <linearGradient
       id="linearGradient10"
       inkscape:collect="always">
      <stop
         style="stop-color:#2e1a47;stop-opacity:1;"
         offset="0"
         id="stop10" />
      <stop
         style="stop-color:#2e1a47;stop-opacity:0;"
         offset="1"
         id="stop11" />
    </linearGradient>
    <linearGradient
       id="linearGradient1">
      <stop
         style="stop-color:#3bc1e7;stop-opacity:1;"
         offset="0"
         id="stop4" />
      <stop
         style="stop-color:#440099;stop-opacity:0;"
         offset="1"
         id="stop5" />
    </linearGradient>
    <linearGradient
       id="linearGradient1-1">
      <stop
         style="stop-color:#440099;stop-opacity:0.71096343;"
         offset="0"
         id="stop2" />
      <stop
         style="stop-color:#440099;stop-opacity:1;"
         offset="1"
         id="stop1" />
    </linearGradient>
    <inkscape:path-effect
       effect="fillet_chamfer"
       id="path-effect9"
       is_visible="true"
       lpeversion="1"
       nodesatellites_param="F,0,0,1,0,0,0,1 @ F,0,0,1,0,0,0,1 @ F,0,0,1,0,0,0,1 @ F,0,0,1,0,0,0,1"
       radius="0"
       unit="px"
       method="auto"
       mode="F"
       chamfer_steps="1"
       flexible="false"
       use_knot_distance="true"
       apply_no_radius="true"
       apply_with_radius="true"
       only_selected="false"
       hide_knots="false" />
    <inkscape:path-effect
       effect="fill_between_many"
       method="originald"
       linkedpaths="#path7,0,1|"
       id="path-effect10" />
    <linearGradient
       inkscape:collect="always"
       xlink:href="#linearGradient10"
       id="linearGradient11"
       x1="-15.058693"
       y1="86.64895"
       x2="7.6237477"
       y2="86.64895"
       gradientUnits="userSpaceOnUse" />
    <linearGradient
       inkscape:collect="always"
       xlink:href="#linearGradient12"
       id="linearGradient13"
       x1="81.572185"
       y1="67.336105"
       x2="116.40786"
       y2="67.336105"
       gradientUnits="userSpaceOnUse" />
    <linearGradient
       inkscape:collect="always"
       xlink:href="#linearGradient34-1"
       id="linearGradient35"
       x1="-32.818581"
       y1="88.742004"
       x2="246.48335"
       y2="88.742004"
       gradientUnits="userSpaceOnUse"
       gradientTransform="matrix(0.48501872,0,0,0.61181098,15.917628,13.440001)" />
  </defs>
  <g
     inkscape:label="Layer 1"
     inkscape:groupmode="layer"
     id="layer1">
    <rect
       style="display:none;fill:url(#linearGradient35);fill-rule:evenodd;stroke:#3bc1e7;stroke-width:0"
       id="rect33"
       width="135.46666"
       height="135.46666"
       x="3.5603841e-06"
       y="3.5603841e-06" />
    <g
       id="g1"
       transform="matrix(1.15,0,0,1.15,-10.490218,-10.461494)">
      <g
         id="g8"
         transform="translate(-6.2348724)">
        <path
           id="path6"
           style="fill:#440099;fill-opacity:1;fill-rule:evenodd;stroke:#3bc1e7;stroke-width:0"
           d="M 74.28394,14.478269 C 38.473809,14.55566 33.445911,38.213978 36.352792,57.96474 39.339034,78.254719 55.534534,93.278958 74.333677,93.278958 93.132821,93.278956 108.49206,80.4306 112.07556,57.96474 115.22061,38.247548 110.09407,14.400876 74.28394,14.478269 Z"
           sodipodi:nodetypes="sssss" />
        <path
           inkscape:original-d="M 0,0"
           inkscape:path-effect="#path-effect10"
           d="m 61.10435,57.301299 c 6.299574,6.887718 8.967533,15.220616 4.708757,19.278872 -4.258776,4.058256 -14.490306,3.627938 -20.789878,-3.25978 -6.299571,-6.887718 -6.281668,-17.624599 -2.022893,-21.682855 4.258776,-4.058256 11.804443,-1.223955 18.104014,5.663763 z"
           id="path10"
           transform="matrix(1.25,0,0,1.25,-18.492051,-13.46963)" />
        <path
           style="fill:url(#linearGradient11);fill-rule:evenodd;stroke:#cdd6e7;stroke-width:0"
           d="m 7.6237477,86.341009 c 1.4e-6,9.334093 -3.6559183,17.208811 -9.5386571,17.208811 -5.8827386,0 -13.1437846,-7.371376 -13.1437836,-16.705468 0,-9.334091 7.2610457,-17.096271 13.1437836,-17.096271 5.882738,0 9.5386575,7.258837 9.5386571,16.592928 z"
           transform="matrix(0.90493053,-0.86232288,0.84362415,0.92238728,-21.849936,-14.908723)"
           id="path7"
           sodipodi:nodetypes="sssss" />
        <path
           style="fill:url(#linearGradient13);fill-rule:evenodd;stroke:#cdd6e7;stroke-width:0"
           d="m 90.048021,58.376266 c -7.874467,8.609644 -11.209416,19.025769 -5.885946,24.098594 5.32347,5.072813 18.112885,4.534925 25.987345,-4.074725 7.87447,-8.60965 7.85209,-22.030752 2.52863,-27.103572 -5.32348,-5.07282 -14.755564,-1.529944 -22.630029,7.079703 z"
           id="path7-1"
           sodipodi:nodetypes="sssss" />
        <ellipse
           style="fill:#f4f5f5;fill-rule:evenodd;stroke:#3bc1e7;stroke-width:0"
           id="path1-4"
           cx="-90.1092"
           cy="74.358093"
           rx="3.5977337"
           ry="1.4690746"
           transform="matrix(-0.97553454,0.2198462,0.2198462,0.97553454,0,0)" />
        <ellipse
           style="fill:#f4f5f5;fill-rule:evenodd;stroke:#3bc1e7;stroke-width:0"
           id="path1"
           transform="rotate(12.7)"
           ry="1.4690746"
           rx="3.5977337"
           cy="42.630135"
           cx="53.928169" />
      </g>
      <path
         id="path8"
         style="fill:#440099;fill-opacity:1;fill-rule:evenodd;stroke:#3bc1e7;stroke-width:0"
         d="m 52.521292,93.627757 c -2e-6,3.709017 -8.201948,5.878807 -18.852124,5.852314 -10.650176,-0.02649 -18.99603,-2.191266 -18.996031,-5.900283 -1e-6,-3.709017 8.297884,-5.782867 18.948062,-5.756375 10.650177,0.02649 18.900093,2.095327 18.900093,5.804344 z"
         sodipodi:nodetypes="sssss" />
      <path
         id="path8-2"
         style="fill:#440099;fill-opacity:1;fill-rule:evenodd;stroke:#3bc1e7;stroke-width:0"
         d="m 125.19643,92.039032 c -1e-5,3.709017 -8.20195,5.878806 -18.85213,5.852313 -10.650172,-0.02649 -18.99603,-2.191265 -18.996031,-5.900282 -10e-7,-3.709017 8.297889,-5.782867 18.948061,-5.756375 10.65018,0.02649 18.9001,2.095327 18.9001,5.804344 z"
         sodipodi:nodetypes="sssss" />
      <path
         id="path8-21"
         style="fill:#440099;fill-opacity:1;fill-rule:evenodd;stroke:#3bc1e7;stroke-width:0"
         d="m 60.207091,95.044146 c 2.884062,2.332173 -0.585991,10.074164 -7.303243,18.338874 -6.717253,8.26472 -13.648258,13.39313 -16.532322,11.06096 -2.884065,-2.33216 0.720916,-10.08844 7.438169,-18.35316 6.717252,-8.264702 13.513332,-13.378842 16.397396,-11.046674 z"
         sodipodi:nodetypes="sssss" />
      <path
         id="path8-21-7"
         style="fill:#440099;fill-opacity:1;fill-rule:evenodd;stroke:#3bc1e7;stroke-width:0"
         d="m 67.962215,94.448807 c 1.486506,0.759003 0.677696,4.49022 -1.512349,8.753193 -2.190043,4.26298 -4.765513,7.16485 -6.252023,6.40584 -1.486506,-0.759 -0.619612,-4.50903 1.570434,-8.772 2.190043,-4.262984 4.70743,-7.146035 6.193938,-6.387033 z"
         sodipodi:nodetypes="sssss" />
      <path
         id="path8-21-7-3"
         style="fill:#440099;fill-opacity:1;fill-rule:evenodd;stroke:#3bc1e7;stroke-width:0"
         d="m 69.778568,94.289234 c -1.486506,0.759003 -0.677696,4.49022 1.512349,8.753196 2.190043,4.26297 4.765513,7.16484 6.252023,6.40583 1.486506,-0.759 0.619612,-4.50903 -1.570434,-8.77199 -2.190043,-4.262987 -4.70743,-7.146038 -6.193938,-6.387036 z"
         sodipodi:nodetypes="sssss" />
      <path
         id="path8-21-5"
         style="fill:#440099;fill-opacity:1;fill-rule:evenodd;stroke:#3bc1e7;stroke-width:0"
         d="m 78.726771,94.40399 c -2.884062,2.332173 0.585991,10.07417 7.303243,18.33888 6.717253,8.26472 13.648258,13.39313 16.532316,11.06096 2.88407,-2.33216 -0.72091,-10.08844 -7.438163,-18.35316 C 88.406915,97.185963 81.610835,92.071822 78.726771,94.40399 Z"
         sodipodi:nodetypes="sssss" />
    </g>
  </g>
</svg>
